<svg width="1335" height="482" viewBox="0 0 1335 482" fill="none" xmlns="http://www.w3.org/2000/svg">
<path d="M6.00269 470.768C3.50157 470.768 1.50067 472.769 1.50067 475.27C1.50067 477.771 3.50157 479.772 6.00269 479.772C8.50381 479.772 10.5047 477.771 10.5047 475.27C10.5047 472.769 8.50381 470.768 6.00269 470.768Z" fill="white"/>
<path d="M1334.56 12.112C1335.15 11.5259 1335.15 10.5758 1334.56 9.98972L1325.01 0.439494C1324.42 -0.146556 1323.47 -0.146556 1322.89 0.439494C1322.3 1.02554 1322.3 1.97572 1322.89 2.56177L1331.38 11.0509L1322.89 19.5399C1322.3 20.126 1322.3 21.0762 1322.89 21.6622C1323.47 22.2483 1324.42 22.2483 1325.01 21.6622L1334.56 12.112ZM1.50067 475.27H3.00135C3.00135 473.598 4.33037 472.269 6.00269 472.269V470.768V469.267C2.67277 469.267 0 471.94 0 475.27H1.50067ZM6.00269 470.768V472.269C7.67501 472.269 9.00404 473.598 9.00404 475.27H10.5047H12.0054C12.0054 471.94 9.33261 469.267 6.00269 469.267V470.768ZM10.5047 475.27H9.00404C9.00404 476.942 7.67501 478.271 6.00269 478.271V479.772V481.273C9.33261 481.273 12.0054 478.6 12.0054 475.27H10.5047ZM6.00269 479.772V478.271C4.33037 478.271 3.00135 476.942 3.00135 475.27H1.50067H0C0 478.6 2.67277 481.273 6.00269 481.273V479.772ZM10.5047 475.27V476.771H649.742V475.27V473.769H10.5047V475.27ZM669.751 455.261H671.252V31.0598H669.751H668.25V455.261H669.751ZM689.76 11.0509V12.5515H1333.5V11.0509V9.55018H689.76V11.0509ZM669.751 31.0598H671.252C671.252 20.838 679.538 12.5515 689.76 12.5515V11.0509V9.55018C677.881 9.55018 668.25 19.1804 668.25 31.0598H669.751ZM649.742 475.27V476.771C661.622 476.771 671.252 467.14 671.252 455.261H669.751H668.25C668.25 465.483 659.964 473.769 649.742 473.769V475.27Z" fill="black"/>
</svg>
